<?xml version="1.0" encoding="utf-8"?>
<!-- Generator: Adobe Illustrator 22.1.0, SVG Export Plug-In . SVG Version: 6.00 Build 0)  -->
<svg version="1.1" id="Layer_1" xmlns="http://www.w3.org/2000/svg" xmlns:xlink="http://www.w3.org/1999/xlink" x="0px" y="0px"
	 viewBox="0 0 512 512" style="enable-background:new 0 0 512 512;" xml:space="preserve">
<g>
	<path d="M206,248.7h-18.5c0.5-3.6,2.3-9.9,9.6-9.9C201.8,238.8,205.5,241.5,206,248.7z M302.1,238.9c-0.3,0-9.9-1.2-9.9,14.1
		s9.6,14.1,9.9,14.1c9.1,0,9.9-9.5,9.9-14.1C312,237.7,302.4,238.9,302.1,238.9L302.1,238.9z M131.1,255.6c-1.6,1.2-2.4,3.1-2.3,5.1
		c0,3.4,1.5,4.3,2.3,5c3.3,2.6,10.6,1.5,14.7,0.7v-11.9C142,253.7,134,253.1,131.1,255.6z M481,239.1c0,61.6-56.3,108.6-116.3,95.9
		c-12.9,23.2-49.7,49.7-93,29.3c-28.9,67.5-125.1,64.8-150.3-3.6C37.3,377.5-4.3,263.4,68.5,220.6C44.1,164.7,84.4,98.5,148.9,98.5
		c27.2,0,52.8,12.7,69.3,34.2c14.6-15,34.7-24.5,57.1-24.5c29.8,0,55.5,16.5,69.5,41.2C410,120.8,481,169.3,481,239.1z M115.7,261.5
		c0-8.3-8.2-10.7-12.6-12.1c-3.7-1.5-9.4-2.5-9.4-6.3c0-6.7,12-4.7,17.7-1.5c0,0,0.8,0.5,1.2-0.3c0.2-0.5,1.7-4.6,1.8-5.1
		c0.1-0.4-0.1-0.8-0.5-1c-8.7-5.4-28.6-6-28.6,8.9c0,8.8,8.1,10.9,12.6,12.1c3.3,1.1,9.3,2.1,9.3,6.1c0,2.8-2.5,5-6.4,5
		c-4.8,0-9.5-1.6-13.4-4.5c-0.3-0.2-1-0.5-1.2,0.5l-1.7,5.3c-0.3,0.7,0.2,0.8,0.2,1c1.2,1,7.2,4.6,16,4.6
		C109.9,274.2,115.7,269.2,115.7,261.5L115.7,261.5z M138.2,231.5c-7.1,0-13.1,2.2-15,3.6c-0.3,0.2-0.4,0.7-0.2,1c0,0,0,0,0,0l1.8,5
		c0.1,0.4,0.5,0.6,0.8,0.5c0.5,0,4.8-2.8,11.9-2.8c2.8,0,5,0.5,6.5,1.7c2.5,2,2.2,5.8,2.2,7.4c-3.4-0.2-13.4-2.4-20.7,2.6
		c-3.4,2.3-5.3,6.2-5.2,10.2c0,4.1,1.1,7.3,4.6,10.1c8.6,5.7,25.5,1.4,26.8,1c1.1-0.2,2.5-0.5,2.5-1.3v-23.8
		C154.2,243.5,154.4,231.5,138.2,231.5L138.2,231.5z M170.9,216.8c0-0.4-0.3-0.8-0.7-0.8c0,0-0.1,0-0.1,0h-6.9
		c-0.4,0-0.8,0.3-0.8,0.7c0,0,0,0.1,0,0.1v55.5c0,0.4,0.3,0.8,0.7,0.8c0,0,0.1,0,0.1,0h6.9c0.4,0,0.8-0.3,0.8-0.7c0,0,0-0.1,0-0.1
		L170.9,216.8z M210.1,237.1c-1.5-1.6-4.8-5.3-12.4-5.3c-2.5,0-10,0.2-14.6,6.3c-4.5,5.4-4.6,12.7-4.6,15.1c0,2.2,0.1,10,5,14.9
		c1.9,2,6.4,5.8,16,5.8c7.6,0,11.6-1.7,13.1-2.6c0.3-0.2,0.5-0.5,0.2-1.3l-1.7-4.8c-0.2-0.4-0.6-0.6-1-0.5c-1.8,0.7-4.5,2-10.8,2
		c-12.2,0-11.8-10.4-11.9-11.7h26.1c0.4,0,0.7-0.3,0.8-0.7C214.2,254.2,215.9,243.8,210.1,237.1L210.1,237.1z M235.9,274.2
		c9.3,0,15.1-5,15.1-12.7c0-8.3-8.2-10.7-12.6-12.1c-2.9-1.2-9.4-2.4-9.4-6.3c0-2.6,2.3-4.5,6-4.5c4.1,0.1,8.1,1.1,11.7,3
		c0,0,0.8,0.5,1.2-0.3c0.2-0.5,1.7-4.6,1.8-5.1c0.1-0.4-0.1-0.8-0.5-1c-5.6-3.4-11.8-3.5-14.2-3.5c-8.4,0-14.4,5.1-14.4,12.4
		c0,8.8,8.1,10.9,12.6,12.1c4.3,1.4,9.3,2.3,9.3,6.1c0,2.8-2.5,5-6.4,5c-4.8,0-9.5-1.6-13.4-4.5c-0.3-0.3-0.7-0.2-1,0.1
		c-0.1,0.1-0.2,0.3-0.2,0.4l-1.7,5.3c-0.3,0.7,0.2,0.8,0.2,1C221.1,270.5,227.2,274.2,235.9,274.2L235.9,274.2z M282.1,233.5
		c0-0.5-0.2-0.8-0.8-0.8H273c0-0.1,0.7-6.3,3.1-8.8c2.9-2.9,8.3-1.2,8.4-1.2c0.8,0.3,1,0,1.2-0.3l2-5.5c0.5-0.7,0-0.8-0.2-1
		c-3.6-1.4-12.2-2-17.2,3c-3.9,3.9-4.9,9.8-5.6,13.7h-6c-0.4,0-0.8,0.4-0.8,0.8l-1,5.5c0,0.5,0.2,0.8,0.8,0.8h5.8
		c-6,33.7-6.2,35.3-7.3,39c-0.8,2.5-2.3,4.9-4.1,5.5c-0.1,0-2.7,1.2-6.8-0.2c0,0-0.7-0.3-1,0.5c-0.2,0.5-1.8,4.8-2,5.3
		c-0.2,0.5,0,1,0.3,1c3.6,1.4,9.1,1.2,12.6,0c4.4-1.6,6.8-5.5,8.1-9.1c1.9-5.4,2-6.9,8.3-42h8.6c0.4,0,0.8-0.4,0.8-0.8L282.1,233.5z
		 M319.6,244.7c-0.4-1.2-3.6-12.7-17.7-12.7c-10.7,0-16.2,7-17.7,12.7c-0.7,2.1-2.2,9.8,0,16.5c0.1,0.2,3.1,12.7,17.7,12.7
		c10.5,0,16.1-6.8,17.7-12.7C321.9,254.5,320.3,246.8,319.6,244.7L319.6,244.7z M351.5,233c-3.5-1.2-11.7-1.3-15.5,3.8v-3.1
		c0-0.4-0.3-0.8-0.7-0.8c0,0-0.1,0-0.1,0h-6.6c-0.4,0-0.8,0.3-0.8,0.7c0,0,0,0.1,0,0.1v38.9c0,0.4,0.3,0.8,0.7,0.8c0,0,0.1,0,0.1,0
		h6.8c0.4,0,0.8-0.3,0.8-0.7c0,0,0-0.1,0-0.1V253c0-2,0-8,3.1-10.6c3.4-3.4,8.4-2.4,9.4-2.2c0.4,0,0.8-0.3,1-0.7
		c0.8-1.8,1.5-3.7,2.2-5.6C352,233.6,351.9,233.2,351.5,233L351.5,233z M384.5,271l-1.5-5.1c-0.3-0.8-1-0.5-1-0.5
		c-3,1.3-7.1,1.3-7.9,1.3c-3.3,0-12.1-0.8-12.1-13.9c0-4.4,1.3-13.9,11.6-13.9c2.7-0.1,5.5,0.3,8.1,1.2c0,0,0.7,0.3,0.8-0.5
		c0.7-1.8,1.2-3.1,1.8-5.3c0.2-0.7-0.3-0.8-0.5-0.8c-8.1-2.7-15.7-1.8-19.5,0c-1.1,0.5-11.4,4.6-11.4,19.4c0,2-0.4,21.2,20.3,21.2
		c3.7,0,7.4-0.7,10.9-2C384.4,271.8,384.6,271.4,384.5,271L384.5,271z M422.3,243.2c-0.6-2.1-3.8-11.4-15.7-11.4
		c-11.3,0-16.5,7.1-18,13.1c-0.8,2.7-1.2,5.5-1.2,8.3c0,18.2,13.2,20.7,21,20.7c7.6,0,11.6-1.7,13.1-2.6c0.3-0.2,0.5-0.5,0.2-1.3
		l-1.7-4.8c-0.2-0.4-0.6-0.6-1-0.5c-1.8,0.7-4.5,2-10.8,2c-12.2,0-11.8-10.4-11.9-11.7h26.1c0.4,0,0.7-0.3,0.8-0.7
		C423.2,254.2,424,249.2,422.3,243.2L422.3,243.2z M406,238.8c-7.3,0-9.1,6.3-9.6,9.9h18.5C414.3,240.3,409.5,238.8,406,238.8
		L406,238.8z"/>
</g>
</svg>
