<svg width="180" height="39" viewBox="0 0 180 39" fill="none" xmlns="http://www.w3.org/2000/svg">
<path d="M120.75 0.463246V4.49467L124.438 0.450317H125.588L121.818 4.52915L125.778 8.84501H124.534L120.75 4.75324V8.84501H119.72V0.463246H120.75Z" fill="#FF0000"/>
<path d="M125.687 2.71265H126.741L128.639 7.11038L130.359 2.71265H131.368L127.94 10.9781H126.944L128.116 8.21143L125.687 2.71265Z" fill="#FF0000"/>
<path d="M133.677 8.84507H132.692V2.7128H133.677V8.84507ZM132.516 0.790818C132.516 0.619379 132.584 0.454963 132.707 0.333738C132.83 0.212513 132.996 0.144409 133.169 0.144409C133.343 0.144409 133.509 0.212513 133.632 0.333738C133.754 0.454963 133.823 0.619379 133.823 0.790818C133.823 0.962256 133.754 1.12667 133.632 1.2479C133.509 1.36912 133.343 1.43723 133.169 1.43723C132.996 1.43723 132.83 1.36912 132.707 1.2479C132.584 1.12667 132.516 0.962256 132.516 0.790818Z" fill="#FF0000"/>
<path d="M136.059 2.71265L137.896 7.86022L139.711 2.71265H140.731L138.502 8.84491H137.244L134.991 2.71265H136.059Z" fill="#FF0000"/>
<path d="M119.221 21.0535H120.217C120.347 22.049 120.761 22.8936 122.459 22.8936C123.549 22.8936 124.39 22.2623 124.39 21.312C124.39 20.3618 123.954 19.9524 122.339 19.7046C120.561 19.4245 119.506 18.8966 119.506 17.3969C119.506 16.1192 120.631 15.1216 122.232 15.1216C123.941 15.1216 124.972 15.9296 125.15 17.4293H124.224C124.024 16.3648 123.418 15.9425 122.232 15.9425C121.047 15.9425 120.465 16.5049 120.465 17.3021C120.465 18.0994 120.774 18.5562 122.505 18.8104C124.39 19.0905 125.388 19.6723 125.388 21.2474C125.388 22.6545 124.141 23.721 122.459 23.721C120.195 23.721 119.375 22.4907 119.221 21.0599" fill="#FF0000"/>
<path d="M126.738 20.6074V20.5147C126.738 18.638 128.089 17.3732 129.75 17.3732C131.042 17.3732 132.252 17.9592 132.441 19.5279H131.469C131.315 18.5539 130.598 18.192 129.75 18.192C128.623 18.192 127.758 19.0818 127.758 20.5255V20.6181C127.758 22.1264 128.588 22.9172 129.785 22.9172C130.656 22.9172 131.469 22.413 131.563 21.4089H132.476C132.345 22.7341 131.256 23.7188 129.774 23.7188C128.041 23.7188 126.738 22.5229 126.738 20.6117" fill="#FF0000"/>
<path d="M135.021 14.5463V18.4506C135.305 17.8774 135.982 17.3732 137.013 17.3732C138.292 17.3732 139.192 18.0649 139.192 19.8468V23.6111H138.207V19.7757C138.207 18.6984 137.745 18.2157 136.749 18.2157C135.836 18.2157 135.019 18.7889 135.019 19.8942V23.609H134.034V14.5463H135.021Z" fill="#FF0000"/>
<path d="M145.824 20.5966V20.5147C145.824 19.0948 145.031 18.1812 143.798 18.1812C142.564 18.1812 141.769 19.0948 141.769 20.5018V20.5966C141.769 22.0036 142.529 22.9064 143.798 22.9064C145.066 22.9064 145.824 21.9778 145.824 20.5966ZM140.749 20.5966V20.5018C140.749 18.6595 142.041 17.3732 143.8 17.3732C145.558 17.3732 146.851 18.6509 146.851 20.491V20.5837C146.851 22.4367 145.543 23.7145 143.8 23.7145C142.057 23.7145 140.764 22.3893 140.764 20.5966" fill="#FF0000"/>
<path d="M153.131 20.5966V20.5147C153.131 19.0948 152.336 18.1812 151.102 18.1812C149.869 18.1812 149.076 19.0948 149.076 20.5018V20.5966C149.076 22.0036 149.836 22.9064 151.102 22.9064C152.368 22.9064 153.131 21.9778 153.131 20.5966ZM148.056 20.5966V20.5018C148.056 18.6595 149.348 17.3732 151.107 17.3732C152.865 17.3732 154.157 18.6509 154.157 20.491V20.5837C154.157 22.4367 152.85 23.7145 151.107 23.7145C149.363 23.7145 148.071 22.3893 148.071 20.5966" fill="#FF0000"/>
<path d="M156.783 14.5463H155.787V23.609H156.783V14.5463Z" fill="#FF0000"/>
<path d="M166.707 20.5966V20.5147C166.707 19.0948 165.914 18.1812 164.68 18.1812C163.447 18.1812 162.651 19.0948 162.651 20.5018V20.5966C162.651 22.0036 163.412 22.9064 164.68 22.9064C165.949 22.9064 166.707 21.9778 166.707 20.5966ZM161.634 20.5966V20.5018C161.634 18.6595 162.926 17.3732 164.685 17.3732C166.443 17.3732 167.736 18.6509 167.736 20.491V20.5837C167.736 22.4367 166.428 23.7145 164.685 23.7145C162.941 23.7145 161.649 22.3893 161.649 20.5966" fill="#FF0000"/>
<path d="M168.553 18.2975V17.4765H169.442V16.4811C169.442 15.227 170.059 14.5117 171.292 14.5117C171.542 14.5045 171.791 14.5447 172.026 14.6302V15.449C171.805 15.3581 171.567 15.3141 171.327 15.3197C170.673 15.3197 170.425 15.7506 170.425 16.3755V17.4765H171.95V18.2975H170.425V23.6089H169.442V18.2975H168.553Z" fill="#FF0000"/>
<path d="M124.664 29.989V30.8229H120.75V33.6714H123.904V34.5031H120.75V37.5391H124.876V38.3729H119.72V29.989H124.664Z" fill="#FF0000"/>
<path d="M125.817 35.3715V35.2789C125.817 33.4 127.168 32.1373 128.829 32.1373C130.121 32.1373 131.331 32.7213 131.52 34.2813H130.548C130.394 33.3073 129.677 32.9432 128.829 32.9432C127.702 32.9432 126.837 33.8352 126.837 35.2789V35.3715C126.837 36.8798 127.668 37.6684 128.864 37.6684C129.736 37.6684 130.548 37.1642 130.644 36.1602H131.555C131.424 37.4831 130.335 38.47 128.853 38.47C127.121 38.47 125.817 37.2741 125.817 35.3629" fill="#FF0000"/>
<path d="M137.78 35.3584V35.2766C137.78 33.8588 136.985 32.943 135.752 32.943C134.518 32.943 133.725 33.8588 133.725 35.2658V35.3584C133.725 36.7655 134.483 37.6683 135.752 37.6683C137.02 37.6683 137.78 36.7439 137.78 35.3584ZM132.705 35.3584V35.2658C132.705 33.4257 133.997 32.135 135.756 32.135C137.515 32.135 138.807 33.4127 138.807 35.2529V35.3477C138.807 37.2007 137.499 38.4763 135.756 38.4763C134.013 38.4763 132.712 37.1533 132.712 35.3584" fill="#FF0000"/>
<path d="M141.396 32.2408V33.2147C141.68 32.6415 142.355 32.1373 143.388 32.1373C144.667 32.1373 145.567 32.8268 145.567 34.6088V38.373H144.582V34.5377C144.582 33.4603 144.12 32.9798 143.124 32.9798C142.211 32.9798 141.394 33.5551 141.394 34.6562V38.373H140.409V32.2408H141.396Z" fill="#FF0000"/>
<path d="M152.195 35.3584V35.2766C152.195 33.8588 151.4 32.943 150.169 32.943C148.938 32.943 148.14 33.8588 148.14 35.2658V35.3584C148.14 36.7655 148.898 37.6683 150.169 37.6683C151.439 37.6683 152.195 36.7439 152.195 35.3584ZM147.12 35.3584V35.2658C147.12 33.4257 148.412 32.135 150.171 32.135C151.93 32.135 153.222 33.4127 153.222 35.2529V35.3477C153.222 37.2007 151.914 38.4763 150.171 38.4763C148.428 38.4763 147.135 37.1533 147.135 35.3584" fill="#FF0000"/>
<path d="M155.811 32.2408V33.1824C155.989 32.8545 156.257 32.5825 156.585 32.3981C156.912 32.2137 157.285 32.124 157.661 32.1395C158.468 32.1395 159.154 32.4563 159.475 33.2858C159.889 32.5015 160.852 32.1395 161.597 32.1395C162.7 32.1395 163.685 32.7859 163.685 34.5765V38.3752H162.7V34.4968C162.7 33.4194 162.238 32.9734 161.392 32.9734C161.173 32.9661 160.955 33.0036 160.752 33.0837C160.549 33.1639 160.364 33.2848 160.21 33.4388C160.057 33.5929 159.937 33.7767 159.858 33.9788C159.78 34.1809 159.745 34.397 159.756 34.6131V38.3666H158.771V34.4882C158.771 33.4108 158.311 32.9648 157.463 32.9648C157.244 32.9575 157.026 32.995 156.823 33.0751C156.62 33.1553 156.435 33.2761 156.281 33.4302C156.128 33.5843 156.008 33.7681 155.929 33.9702C155.851 34.1723 155.816 34.3884 155.827 34.6045V38.358H154.844V32.2408H155.811Z" fill="#FF0000"/>
<path d="M166.642 38.373H165.659V32.2407H166.642V38.373ZM165.482 30.3188C165.482 30.191 165.521 30.066 165.592 29.9596C165.664 29.8533 165.767 29.7704 165.886 29.7215C166.005 29.6726 166.137 29.6599 166.264 29.6848C166.39 29.7096 166.507 29.7712 166.598 29.8617C166.69 29.952 166.752 30.0673 166.777 30.1927C166.803 30.3181 166.79 30.448 166.74 30.5661C166.691 30.6842 166.607 30.7852 166.499 30.8561C166.392 30.9272 166.265 30.9652 166.136 30.9652C165.963 30.9652 165.796 30.8971 165.674 30.7758C165.551 30.6547 165.482 30.4903 165.482 30.3188Z" fill="#FF0000"/>
<path d="M168.232 35.3715V35.2789C168.232 33.4 169.584 32.1373 171.244 32.1373C172.536 32.1373 173.746 32.7213 173.935 34.2813H172.963C172.809 33.3073 172.092 32.9432 171.244 32.9432C170.117 32.9432 169.252 33.8352 169.252 35.2789V35.3715C169.252 36.8798 170.083 37.6684 171.279 37.6684C172.151 37.6684 172.963 37.1642 173.057 36.1602H173.97C173.842 37.4831 172.75 38.47 171.268 38.47C169.54 38.4786 168.232 37.2763 168.232 35.3715Z" fill="#FF0000"/>
<path d="M175.117 36.4855H176.078C176.161 37.2224 176.54 37.6685 177.536 37.6685C178.486 37.6685 178.887 37.3517 178.887 36.6967C178.887 36.0417 178.401 35.8348 177.442 35.6646C175.829 35.3845 175.283 34.9255 175.283 33.8568C175.283 32.7342 176.398 32.1331 177.381 32.1331C178.486 32.1331 179.469 32.564 179.623 33.9021H178.675C178.532 33.2341 178.166 32.9389 177.368 32.9389C176.658 32.9389 176.193 33.2923 176.193 33.8202C176.193 34.3481 176.503 34.6045 177.64 34.792C178.922 35.0505 179.82 35.2962 179.82 36.6105C179.82 37.7353 179.059 38.4743 177.542 38.4743C176.06 38.4743 175.169 37.746 175.11 36.4812" fill="#FF0000"/>
<path d="M105.22 0.476196H104.232V38.4226H105.22V0.476196Z" fill="#FF0000"/>
<path d="M30.9574 0.762808C28.3293 2.35512 23.0361 6.9317 17.2634 12.4369C16.7295 12.006 17.5533 12.6697 17.0194 12.243C20.0484 6.98987 22.5785 1.10756 22.7528 0.476233H30.8746C30.9596 0.767117 30.8746 0.476233 30.9574 0.762808ZM15.0211 14.7856C16.5029 17.3346 27.7409 31.9713 33.9363 38.4225H23.9121C20.1835 33.3266 10.7542 21.185 9.2201 19.8922L15.0211 14.7856ZM8.06295 0.476233C7.89952 4.54214 7.79056 11.4264 7.79056 19.2221C7.79056 25.2401 7.84504 34.7358 8.06295 38.4139H0C0.217918 36.145 0.383535 28.3924 0.383535 19.8232C0.383535 13.1566 0.274576 6.00087 0 0.471924L8.06295 0.476233Z" fill="#FF0000"/>
<path d="M57.787 5.76597C56.4941 3.36294 54.4404 1.44508 51.9402 0.305967C52.0579 -0.176685 51.8966 0.482652 52.0165 0L59.0988 0.476188L58.0899 5.72072L57.787 5.76597ZM44.9821 38.8858L36.5683 38.3127L37.7821 31.2582L38.0916 31.2259C39.2596 34.139 41.6785 37.1491 45.0649 38.582L44.9908 38.8858H44.9821ZM42.3235 6.92735C42.3235 11.0471 45.6141 12.9433 49.0681 14.5162C55.756 17.4983 60.7441 20.5881 60.7441 27.634C60.7441 33.4861 56.9175 38.1381 50.1664 38.8643C49.9659 37.9356 50.2993 39.4827 50.0988 38.554C53.762 37.4012 55.4814 34.9104 55.4814 31.59C55.4814 27.3086 52.4109 25.1949 47.3683 22.7557C41.1184 19.6077 36.2393 16.7937 36.2393 10.3964C36.2393 4.83729 40.2184 0.665801 47.3531 0.021547C47.5361 0.945912 47.2332 -0.599006 47.4141 0.325359C43.9274 1.38547 42.3257 3.83105 42.3257 6.92735" fill="#FF0000"/>
<path d="M89.6596 31.2861V38.4225H78.9032C78.8138 37.9204 78.9358 38.6121 78.8487 38.11C82.7712 36.6664 87.2973 33.6175 89.3741 31.1805L89.6596 31.2861ZM88.5068 0.473999V6.89499L88.2191 6.99626C86.1206 4.374 82.1065 1.83577 78.5174 0.790739C78.6068 0.144329 78.4717 1.1161 78.561 0.476154L88.5068 0.473999ZM86.6981 15.6625V21.7861L86.4409 21.9132C83.815 20.0322 80.7751 19.2759 77.8419 18.6532C77.8419 18.2028 77.8419 18.7932 77.8419 18.3407C81.1107 17.7956 84.3925 16.7118 86.4496 15.5267L86.6915 15.6625H86.6981ZM75.1811 0.476154C75.0155 6.05897 74.9065 12.4002 74.9065 20.2089C74.9065 26.2247 75.0155 35.7226 75.1811 38.4225H67.1182C67.3361 36.145 67.5017 28.3924 67.5017 19.8275C67.5017 13.1608 67.3906 6.0051 67.1182 0.476154H75.1811Z" fill="#FF0000"/>
</svg>
